<svg xmlns="http://www.w3.org/2000/svg" width="1280" height="720" viewBox="0 0 1280 720" role="img" aria-label="Dashboard executivo">
  <rect width="1280" height="720" fill="#f3f4f6"/>
  <rect x="0" y="0" width="260" height="720" fill="#0f172a"/>
  <text x="28" y="56" font-family="Segoe UI, Arial" font-size="28" fill="#e2e8f0" font-weight="700">InfraPulse</text>
  <text x="28" y="108" font-family="Segoe UI, Arial" font-size="18" fill="#94a3b8">Dashboard</text>
  <text x="28" y="140" font-family="Segoe UI, Arial" font-size="18" fill="#94a3b8">Chamados</text>
  <text x="28" y="172" font-family="Segoe UI, Arial" font-size="18" fill="#94a3b8">Alertas</text>
  <text x="28" y="204" font-family="Segoe UI, Arial" font-size="18" fill="#94a3b8">Relatorios</text>

  <text x="300" y="62" font-family="Segoe UI, Arial" font-size="34" fill="#111827" font-weight="700">Dashboard Executivo</text>

  <rect x="300" y="100" width="220" height="130" rx="14" fill="#ffffff"/>
  <rect x="540" y="100" width="220" height="130" rx="14" fill="#ffffff"/>
  <rect x="780" y="100" width="220" height="130" rx="14" fill="#ffffff"/>
  <rect x="1020" y="100" width="220" height="130" rx="14" fill="#ffffff"/>

  <text x="320" y="138" font-family="Segoe UI, Arial" font-size="17" fill="#6b7280">SLA medio</text>
  <text x="320" y="192" font-family="Segoe UI, Arial" font-size="40" fill="#111827" font-weight="700">94.2%</text>

  <text x="560" y="138" font-family="Segoe UI, Arial" font-size="17" fill="#6b7280">Abertos</text>
  <text x="560" y="192" font-family="Segoe UI, Arial" font-size="40" fill="#111827" font-weight="700">186</text>

  <text x="800" y="138" font-family="Segoe UI, Arial" font-size="17" fill="#6b7280">Criticos</text>
  <text x="800" y="192" font-family="Segoe UI, Arial" font-size="40" fill="#dc2626" font-weight="700">12</text>

  <text x="1040" y="138" font-family="Segoe UI, Arial" font-size="17" fill="#6b7280">Risco</text>
  <text x="1040" y="192" font-family="Segoe UI, Arial" font-size="40" fill="#ea580c" font-weight="700">Alto</text>

  <rect x="300" y="260" width="940" height="400" rx="14" fill="#ffffff"/>
  <text x="330" y="308" font-family="Segoe UI, Arial" font-size="24" fill="#111827" font-weight="700">Tendencia de SLA e produtividade</text>
  <polyline points="340,590 470,520 600,540 730,460 860,500 990,430 1120,450" fill="none" stroke="#0f766e" stroke-width="6"/>
  <line x1="340" y1="590" x2="1160" y2="590" stroke="#d1d5db" stroke-width="2"/>
  <line x1="340" y1="360" x2="340" y2="590" stroke="#d1d5db" stroke-width="2"/>
</svg>
